<svg clip-rule="evenodd" fill-rule="evenodd" stroke-linejoin="round" stroke-miterlimit="2" viewBox="0 0 560 400" xmlns="http://www.w3.org/2000/svg" xmlns:xlink="http://www.w3.org/1999/xlink"><linearGradient id="a" gradientTransform="matrix(53.2911 -44.0748 44.0748 53.2911 0 57.7018)" gradientUnits="userSpaceOnUse" x1="0" x2="1" y1="0" y2="0"><stop offset="0" stop-color="#ff6e00"/><stop offset=".09" stop-color="#fe6b02"/><stop offset=".95" stop-color="#f75c0d"/><stop offset="1" stop-color="#fa5000"/></linearGradient><path d="m53.321 13.627-5.731 6.88 6.939-1.644-38.329 39.51 10.337-26.149-4.837 1.117 8.145-14.11zm1.758 1.44c.389-.007.706-.329.706-.718 0-.394-.324-.718-.718-.718-.393 0-.717.323-.718.716v.002c0 .394.324.718.718.718zm-.586-.72c.009-.313.269-.566.583-.566.32 0 .583.263.583.583 0 .319-.262.582-.581.583-.001 0-.003 0-.004 0-.319 0-.581-.262-.581-.581 0-.006 0-.013 0-.019zm.434.057h.144l.218.359h.141l-.236-.365c.118 0 .215-.097.215-.215 0-.004 0-.009 0-.013 0-.163-.1-.236-.293-.236h-.316v.828h.125v-.362zm0-.107v-.256h.173c.087 0 .181.019.181.122 0 .127-.1.135-.2.135h-.151z" fill="url(#a)" fill-rule="nonzero" transform="matrix(5.05242 0 0 5.05242 98.1508 18.1129)"/></svg>